<svg width="20" height="20" viewBox="0 0 20 20" fill="none" xmlns="http://www.w3.org/2000/svg">
<g id="Group 4">
<g id="Group">
<path id="Vector" d="M18.0322 4.52735C17.072 3.54278 15.796 3 14.4378 3C13.0797 3 11.8036 3.54278 10.8434 4.52735L9.3499 6.05891L6.01404 9.47966L3.92963 11.6171C3.52752 12.0295 3.52752 12.6942 3.92963 13.1066C4.13069 13.3128 4.39329 13.4137 4.65589 13.4137C4.91849 13.4137 5.1811 13.3128 5.38215 13.1066L6.81415 11.6381C7.63478 12.1978 8.59902 12.4965 9.6084 12.4965C10.9665 12.4965 12.2426 11.9537 13.2028 10.9691L18.0363 6.01262C18.4384 5.60028 18.4384 4.93548 18.0363 4.52314L18.0322 4.52735ZM11.7502 9.48387C11.1758 10.0729 10.4167 10.3927 9.6084 10.3927C9.15295 10.3927 8.71391 10.2917 8.31591 10.0982L12.296 6.01262C12.8704 5.42777 13.6295 5.10379 14.4378 5.10379C14.8933 5.10379 15.3323 5.20477 15.7303 5.39832L11.7502 9.47966V9.48387Z" fill="white"/>
<path id="Vector_2" d="M13.1535 11.9537C12.5873 11.9537 12.1278 12.425 12.1278 13.0056V14.7475C12.1278 15.0926 11.8528 15.3745 11.5164 15.3745H3.66295C3.32649 15.3745 3.05158 15.0926 3.05158 14.7475V6.69425C3.05158 6.34923 3.32649 6.06732 3.66295 6.06732H7.7702C8.33644 6.06732 8.79599 5.59607 8.79599 5.01542C8.79599 4.43478 8.33644 3.96353 7.7702 3.96353H3.66295C2.19402 3.96353 1 5.18794 1 6.69425V14.7475C1 16.2539 2.19402 17.4783 3.66295 17.4783H11.5164C12.9853 17.4783 14.1793 16.2539 14.1793 14.7475V13.0056C14.1793 12.425 13.7198 11.9537 13.1535 11.9537Z" fill="white"/>
</g>
</g>
</svg>
