<svg width="25" height="22" viewBox="0 0 25 22" fill="none" xmlns="http://www.w3.org/2000/svg">
<g id="_&#208;&#160;&#208;&#142;&#208;&#160;&#194;&#187;&#208;&#160;&#209;&#149;&#208;&#160;&#226;&#132;&#150;_2" clip-path="url(#clip0_542_56)">
<path id="Vector" d="M16.552 16.2706H4.68581C4.12693 16.2706 3.67334 16.7098 3.67334 17.251C3.67334 17.7921 4.12693 18.2314 4.68581 18.2314H16.552C17.1109 18.2314 17.5645 17.7921 17.5645 17.251C17.5645 16.7098 17.1109 16.2706 16.552 16.2706Z" fill="#E384FF"/>
<path id="Vector_2" d="M20.2252 13.9725C19.6663 13.9725 19.2127 14.4118 19.2127 14.9529V17.5216C19.2127 18.9098 18.0463 20.0392 16.6127 20.0392H4.62498C3.19132 20.0392 2.02495 18.9098 2.02495 17.5216V13.4863C2.02495 12.749 2.33274 12.0824 2.83088 11.6C3.07792 11.3608 3.37761 11.1647 3.70565 11.0275C3.78665 10.9922 3.8717 10.9647 3.95675 10.9373C4.02155 10.9176 4.08634 10.902 4.15519 10.8863C4.25644 10.8627 4.35769 10.8431 4.46298 10.8353C4.56828 10.8274 4.67358 10.8196 4.77888 10.8196C4.87202 10.8196 4.96517 10.8157 5.05427 10.8078C5.14742 10.8039 5.24056 10.7961 5.32966 10.7843C5.35396 10.7804 5.38231 10.7804 5.40661 10.7765C5.41066 10.7725 5.41471 10.7725 5.41876 10.7765C5.44306 10.7725 5.46736 10.7686 5.49166 10.7647C5.59695 10.749 5.70225 10.7294 5.80755 10.7059H5.8197C5.92095 10.6824 6.02624 10.6588 6.12749 10.6275C6.16799 10.6196 6.20849 10.6078 6.24899 10.5922C6.30164 10.5765 6.35429 10.5608 6.40288 10.5373C6.47173 10.5137 6.54058 10.4902 6.60943 10.4627C6.68233 10.4353 6.75117 10.4039 6.82002 10.3725C7.02657 10.2824 7.22501 10.1725 7.41131 10.0471C7.6219 9.91765 7.8163 9.7647 8.00259 9.6C8.03904 9.5647 8.07549 9.53333 8.11194 9.49804C8.12814 9.4902 8.14434 9.47451 8.15649 9.46274C8.18079 9.43921 8.20104 9.41569 8.21724 9.39216C8.22534 9.38824 8.22939 9.38039 8.23344 9.37647C8.26583 9.3451 8.29418 9.31372 8.32658 9.28235C8.39138 9.21176 8.45618 9.14118 8.51693 9.06667C8.58173 8.98823 8.64248 8.9098 8.69512 8.83137C8.75182 8.75294 8.80852 8.67059 8.86117 8.58823C8.94622 8.46274 9.01912 8.32941 9.08391 8.19608C9.14871 8.05882 9.20946 7.92157 9.26211 7.78039C9.31881 7.63921 9.36741 7.49412 9.40386 7.3451C9.42006 7.27843 9.43625 7.21176 9.45245 7.14118C9.49295 6.9647 9.51725 6.78823 9.53345 6.60784C9.5456 6.47059 9.5537 6.33333 9.5537 6.19216V6.06274C9.5537 5.97255 9.55775 5.87843 9.5699 5.79216C9.578 5.70588 9.59015 5.62353 9.60635 5.5451C9.6104 5.52941 9.61445 5.51372 9.6185 5.49804C9.63065 5.42353 9.6509 5.34902 9.6752 5.27843C9.6995 5.2 9.72785 5.12549 9.76025 5.05098C9.7805 5.00784 9.80075 4.96078 9.821 4.91765C9.83314 4.89412 9.84529 4.87059 9.85744 4.85098C9.88174 4.8 9.91009 4.75294 9.93844 4.70588C9.94249 4.69412 9.95059 4.68627 9.95869 4.67843C9.99109 4.62353 10.0235 4.57647 10.0599 4.52549C10.1328 4.42353 10.2138 4.32549 10.3029 4.23529C10.311 4.22745 10.3191 4.21961 10.3232 4.21569C10.3596 4.18039 10.392 4.14902 10.4285 4.11765C10.4528 4.09412 10.4811 4.07059 10.5095 4.04706C10.5419 4.01961 10.5743 3.99216 10.6107 3.9647C10.7241 3.87843 10.8456 3.8 10.9712 3.73333C11.0238 3.70196 11.0765 3.67451 11.1332 3.6549C11.1453 3.64706 11.1534 3.64314 11.1615 3.63921C11.2142 3.61569 11.2668 3.59216 11.3195 3.57647C11.3235 3.57647 11.3276 3.57647 11.3316 3.57647C11.3357 3.57255 11.3397 3.57255 11.3478 3.57255C11.6475 3.45882 11.9715 3.4 12.3076 3.4H12.5628C12.8422 3.4 13.0974 3.2902 13.2796 3.11372C13.4619 2.93333 13.5752 2.6902 13.5752 2.41961C13.5752 1.87843 13.1217 1.43921 12.5628 1.43921H4.62498C2.07355 1.43529 0 3.44706 0 5.91765V17.5216C0 19.9922 2.07355 22 4.62498 22H16.6127C19.1641 22 21.2376 19.9922 21.2376 17.5216V14.9529C21.2376 14.4118 20.7841 13.9725 20.2252 13.9725ZM2.02495 5.91765C2.02495 5.22353 2.31654 4.59216 2.78633 4.13725C2.84303 4.07843 2.90782 4.02353 2.97262 3.97255C3.41811 3.61176 3.99725 3.39608 4.62498 3.39608H8.40758C8.33873 3.4902 8.27394 3.58823 8.21319 3.68627C8.08764 3.88627 7.97829 4.09412 7.88919 4.3098C7.80415 4.50196 7.7353 4.70196 7.68265 4.90588C7.5814 5.27451 7.52875 5.66274 7.52875 6.06274V6.19216C7.52875 6.37255 7.51255 6.5451 7.47611 6.71765C7.47611 6.72157 7.47206 6.72549 7.47206 6.72941C7.45586 6.81569 7.43156 6.90196 7.40321 6.98431C7.27361 7.39216 7.04277 7.76471 6.72283 8.07451C6.66208 8.13333 6.59728 8.19216 6.52843 8.24706C6.52438 8.25098 6.52438 8.2549 6.52033 8.2549C6.31784 8.41176 6.09104 8.5451 5.84805 8.64706C5.84805 8.65098 5.83995 8.6549 5.83185 8.6549C5.73465 8.69412 5.6334 8.72941 5.52811 8.75294C5.28916 8.81961 5.03807 8.8549 4.77888 8.8549C3.7502 8.8549 2.80253 9.17255 2.02495 9.7098V5.91765Z" fill="#E384FF"/>
<path id="Vector_3" d="M16.6573 12.5137C16.6209 12.5098 16.5885 12.5098 16.552 12.5098H4.68581C4.12693 12.5098 3.67334 12.949 3.67334 13.4902C3.67334 14.0314 4.12693 14.4706 4.68581 14.4706H16.552C17.1109 14.4706 17.5645 14.0314 17.5645 13.4902C17.5645 12.9843 17.1676 12.5647 16.6573 12.5137Z" fill="#E384FF"/>
<path id="Vector_4" d="M12.595 8.75293H11.4246C10.8657 8.75293 10.4121 9.18822 10.4121 9.73332C10.4121 10.2784 10.8657 10.7137 11.4246 10.7137H12.595C13.1539 10.7137 13.6075 10.2745 13.6075 9.73332C13.6075 9.19215 13.1539 8.75293 12.595 8.75293Z" fill="#E384FF"/>
<path id="Vector_5" d="M23.9873 4.53333H21.9664H20.3181V0.980392C20.3181 0.447059 19.8807 0.0156863 19.334 0H19.3016C18.7427 0 18.2891 0.439216 18.2891 0.980392V2.93333V4.53333H14.6199C14.0691 4.53333 13.6236 4.95686 13.6074 5.48627V5.51373C13.6074 6.0549 14.061 6.49412 14.6199 6.49412H16.6408H18.2891V10.0471C18.2891 10.5804 18.7265 11.0118 19.2732 11.0275H19.3056C19.8645 11.0275 20.3181 10.5882 20.3181 10.0471V8.09412V6.49412H23.9873C24.5381 6.49412 24.9836 6.07059 24.9998 5.54118V5.51373C24.9998 4.97255 24.5462 4.53333 23.9873 4.53333Z" fill="#E384FF"/>
</g>
<defs>
<clipPath id="clip0_542_56">
<rect width="25" height="22" fill="white"/>
</clipPath>
</defs>
</svg>
