<svg width="19" height="19" viewBox="0 0 19 19" fill="none" xmlns="http://www.w3.org/2000/svg">
<g id="_&#195;&#144;&#194;&#161;&#195;&#144;&#194;&#187;&#195;&#144;&#194;&#190;&#195;&#144;&#194;&#185;_2" clip-path="url(#clip0_542_845)">
<path id="Vector" d="M11.2023 9.50001L18.6431 2.05915C19.1157 1.58656 19.1157 0.824635 18.6431 0.352046C18.1705 -0.120543 17.4086 -0.120543 16.936 0.352046L9.49515 7.79291L2.05911 0.352046C1.58652 -0.115721 0.824589 -0.115721 0.352 0.352046C-0.115766 0.824635 -0.115766 1.58656 0.352 2.05915L7.79286 9.50001L0.352 16.9409C-0.120589 17.4135 -0.120589 18.1754 0.352 18.648C0.588295 18.8843 0.896924 19 1.20555 19C1.51418 19 1.82281 18.8843 2.05911 18.648L9.49997 11.2071L16.9408 18.648C17.1771 18.8843 17.4858 19 17.7944 19C18.103 19 18.4116 18.8843 18.6479 18.648C19.1205 18.1754 19.1205 17.4135 18.6479 16.9409L11.2071 9.50001H11.2023Z" fill="#E384FF"/>
</g>
<defs>
<clipPath id="clip0_542_845">
<rect width="19" height="19" fill="white"/>
</clipPath>
</defs>
</svg>
