<svg width="22" height="21" viewBox="0 0 22 21" fill="none" xmlns="http://www.w3.org/2000/svg">
<g id="Group">
<path id="Vector" d="M15.3802 15.5732H5.47505C4.98123 15.5732 4.58044 15.974 4.58044 16.4678C4.58044 16.9616 4.98123 17.3624 5.47505 17.3624H15.3802C15.874 17.3624 16.2748 16.9616 16.2748 16.4678C16.2748 15.974 15.874 15.5732 15.3802 15.5732Z" fill="#E384FF"/>
<path id="Vector_2" d="M17.6775 4.31902C17.3268 3.96834 16.7614 3.96834 16.4107 4.31902L15.3766 5.35319L14.3424 4.31902C13.9917 3.96834 13.4263 3.96834 13.0756 4.31902C12.725 4.66971 12.725 5.2351 13.0756 5.58579L14.1098 6.61996L13.0756 7.65412C12.725 8.00481 12.725 8.5702 13.0756 8.92089C13.251 9.09623 13.48 9.18212 13.709 9.18212C13.938 9.18212 14.1671 9.09623 14.3424 8.92089L15.3766 7.88672L16.4107 8.92089C16.5861 9.09623 16.8151 9.18212 17.0441 9.18212C17.2731 9.18212 17.5022 9.09623 17.6775 8.92089C18.0282 8.5702 18.0282 8.00481 17.6775 7.65412L16.6433 6.61996L17.6775 5.58579C18.0282 5.2351 18.0282 4.66971 17.6775 4.31902Z" fill="#E384FF"/>
<path id="Vector_3" d="M21.077 6.61994C21.077 3.47808 18.522 0.923077 15.3801 0.923077C14.1634 0.923077 12.979 1.32028 12.0056 2.03597H4.39431C2.13989 2.03597 0.307739 3.87171 0.307739 6.12612V16.7147C0.307739 18.9691 2.13989 20.8013 4.39431 20.8013H14.9865C17.2409 20.8013 19.073 18.9691 19.073 16.7147V10.9498C20.3362 9.87274 21.077 8.28749 21.077 6.61994ZM4.39431 3.82519H7.73657C7.2499 4.51225 6.96005 5.35318 6.96005 6.25852V6.37661C6.96005 7.02788 6.70598 7.63622 6.24794 8.09784C5.7899 8.55946 5.18156 8.80995 4.53029 8.80995C3.62495 8.80995 2.78401 9.0998 2.09695 9.58647V6.12612C2.09695 4.85578 3.12754 3.82519 4.39431 3.82519ZM17.2838 16.7147C17.2838 17.9815 16.2532 19.0121 14.9865 19.0121H4.39431C3.12754 19.0121 2.09695 17.9815 2.09695 16.7147V13.0325C2.09695 11.6906 3.18838 10.5992 4.53029 10.5992C5.66107 10.5992 6.72029 10.159 7.5147 9.36102C8.31269 8.56303 8.74927 7.50382 8.74927 6.37661V6.25852C8.74927 5.21362 9.41127 4.32259 10.3345 3.97906C9.91225 4.78421 9.68681 5.68955 9.68681 6.61994C9.68681 7.36068 9.83353 8.06563 10.0912 8.71333H9.2073C8.71348 8.71333 8.3127 9.11411 8.3127 9.60794C8.3127 10.1018 8.71348 10.5025 9.2073 10.5025H11.2291C11.9734 11.297 12.936 11.8767 14.0239 12.145H5.47857C4.98475 12.145 4.58396 12.5458 4.58396 13.0397C4.58396 13.5335 4.98475 13.9343 5.47857 13.9343H15.3837C15.8775 13.9343 16.2783 13.5335 16.2783 13.0397C16.2783 12.7283 16.1173 12.4528 15.8775 12.2953C16.3606 12.2524 16.8329 12.1522 17.2874 11.9912V16.7183L17.2838 16.7147ZM17.656 9.79401C16.9904 10.2699 16.2031 10.524 15.3801 10.524C13.2259 10.524 11.476 8.77416 11.476 6.61994C11.476 5.45695 11.9877 4.36553 12.8824 3.61764C13.5801 3.03435 14.4676 2.71229 15.3801 2.71229C17.5343 2.71229 19.2878 4.46573 19.2878 6.61994C19.2878 7.8724 18.6758 9.06044 17.656 9.79401Z" fill="#E384FF"/>
</g>
</svg>
