<svg width="19" height="22" viewBox="0 0 19 22" fill="none" xmlns="http://www.w3.org/2000/svg">
<g id="Group">
<path id="Vector" d="M17.5576 14.3982C17.0915 14.3982 16.7133 14.7764 16.7133 15.2424V17.4544C16.7133 18.6499 15.7407 19.6225 14.5452 19.6225H4.5523C3.3568 19.6225 2.38081 18.6499 2.38081 17.4544V13.9794C2.38081 12.713 3.41083 11.683 4.67725 11.683C6.87575 11.683 8.66224 9.89647 8.66224 7.69797V7.58652C8.66224 6.32011 9.69226 5.29009 10.9587 5.29009H11.1714C11.6375 5.29009 12.0157 4.91185 12.0157 4.44581C12.0157 3.97977 11.6375 3.60153 11.1714 3.60153H4.5523C2.42472 3.60153 0.692261 5.33061 0.692261 7.45819V17.4511C0.692261 19.5786 2.42472 21.3077 4.5523 21.3077H14.5452C16.6727 21.3077 18.4018 19.5786 18.4018 17.4511V15.2391C18.4018 14.773 18.0236 14.3948 17.5576 14.3948V14.3982ZM4.54892 5.29347H7.70314C7.24385 5.94187 6.97031 6.73549 6.97031 7.5899V7.70135C6.97031 8.96776 5.94029 9.99778 4.67387 9.99778C3.81946 9.99778 3.02922 10.2713 2.37744 10.7306V7.46495C2.37744 6.26945 3.35005 5.29684 4.54892 5.29684V5.29347Z" fill="#E384FF"/>
<path id="Vector_2" d="M11.195 13.1418H4.59953C4.13349 13.1418 3.75525 13.52 3.75525 13.9861C3.75525 14.4521 4.13349 14.8304 4.59953 14.8304H11.195C11.6611 14.8304 12.0393 14.4521 12.0393 13.9861C12.0393 13.52 11.6611 13.1418 11.195 13.1418Z" fill="#E384FF"/>
<path id="Vector_3" d="M11.195 9.90321H10.219C9.75299 9.90321 9.37476 10.2814 9.37476 10.7475C9.37476 11.2135 9.75299 11.5918 10.219 11.5918H11.195C11.6611 11.5918 12.0393 11.2135 12.0393 10.7475C12.0393 10.2814 11.6611 9.90321 11.195 9.90321Z" fill="#E384FF"/>
<path id="Vector_4" d="M11.195 16.3805H4.59953C4.13349 16.3805 3.75525 16.7587 3.75525 17.2248C3.75525 17.6908 4.13349 18.069 4.59953 18.069H11.195C11.6611 18.069 12.0393 17.6908 12.0393 17.2248C12.0393 16.7587 11.6611 16.3805 11.195 16.3805Z" fill="#E384FF"/>
<path id="Vector_5" d="M17.5575 0.538462C15.1834 0.538462 13.2517 2.47017 13.2517 4.84428V17.8023C13.2517 18.2683 13.6299 18.6465 14.096 18.6465C14.562 18.6465 14.9403 18.2683 14.9403 17.8023V14.3306C16.9125 13.9355 18.4018 12.1929 18.4018 10.1092V1.38274C18.4018 0.916698 18.0236 0.538462 17.5575 0.538462ZM16.7132 10.1126C16.7132 11.2608 15.9703 12.2368 14.9403 12.588V4.84428C14.9403 3.69606 15.6832 2.72008 16.7132 2.36886V10.1126Z" fill="#E384FF"/>
</g>
</svg>
