<svg width="21" height="20" viewBox="0 0 21 20" fill="none" xmlns="http://www.w3.org/2000/svg">
<g id="_&#208;&#160;&#208;&#142;&#208;&#160;&#194;&#187;&#208;&#160;&#209;&#149;&#208;&#160;&#226;&#132;&#150;_2" clip-path="url(#clip0_542_866)">
<path id="Vector" d="M4.79031 20H3.17603C1.42324 20 0 18.5863 0 16.8454V3.15465C0 1.41366 1.42324 0 3.17603 0H4.79031C5.4494 0 5.98431 0.531309 5.98431 1.18596C5.98431 1.84061 5.4494 2.37192 4.79031 2.37192H3.17603C2.74141 2.37192 2.38799 2.72296 2.38799 3.15465V16.8501C2.38799 17.2818 2.74141 17.6328 3.17603 17.6328H4.79031C5.4494 17.6328 5.98431 18.1641 5.98431 18.8188C5.98431 19.4734 5.4494 20.0047 4.79031 20.0047V20Z" fill="#E384FF"/>
<path id="Vector_2" d="M17.8287 20H16.6204C15.9613 20 15.4264 19.4687 15.4264 18.814C15.4264 18.1594 15.9613 17.6281 16.6204 17.6281H17.8287C18.2633 17.6281 18.6167 17.277 18.6167 16.8454V3.15465C18.6167 2.72296 18.2633 2.37192 17.8287 2.37192H16.6204C15.9613 2.37192 15.4264 1.84061 15.4264 1.18596C15.4264 0.531309 15.9613 0 16.6204 0H17.8287C19.5815 0 21.0047 1.41366 21.0047 3.15465V16.8501C21.0047 18.5911 19.5815 20.0047 17.8287 20.0047V20Z" fill="#E384FF"/>
<path id="Vector_3" d="M14.8294 17.5806C14.4664 17.5806 14.113 17.4146 13.8837 17.1158L10.7937 13.1167L7.70362 17.1158C7.39318 17.519 6.85827 17.6803 6.37112 17.5142C5.88875 17.3529 5.5592 16.8975 5.5592 16.3899V3.60531C5.5592 2.95066 6.09411 2.41936 6.7532 2.41936H14.8294C15.4885 2.41936 16.0234 2.95066 16.0234 3.60531V16.3994C16.0234 16.907 15.6986 17.3577 15.2115 17.5237C15.0873 17.5664 14.9536 17.5854 14.8294 17.5854V17.5806ZM10.7937 9.98577C11.1662 9.98577 11.5149 10.1565 11.7393 10.4507L13.6354 12.9032V4.79127H7.95197V12.9032L9.84804 10.4507C10.0725 10.1565 10.4259 9.98577 10.7937 9.98577Z" fill="#E384FF"/>
</g>
<defs>
<clipPath id="clip0_542_866">
<rect width="21" height="20" fill="white"/>
</clipPath>
</defs>
</svg>
