<svg width="22" height="21" viewBox="0 0 22 21" fill="none" xmlns="http://www.w3.org/2000/svg">
<g id="_&#208;&#160;&#208;&#142;&#208;&#160;&#194;&#187;&#208;&#160;&#209;&#149;&#208;&#160;&#226;&#132;&#150;_2" clip-path="url(#clip0_542_994)">
<path id="Vector" d="M21.1594 11.7808C19.9551 11.2945 18.6253 11.2148 17.3164 11.5418C16.9401 11.6383 16.5804 11.7682 16.2334 11.9233L15.3677 10.5273C16.133 9.58814 16.2626 8.22559 15.5894 7.13975L13.6491 3.9996C12.8002 2.62867 11.002 2.20942 9.63461 3.0563C8.9739 3.46716 8.50973 4.1128 8.3341 4.87163C8.15846 5.63046 8.28391 6.41445 8.69372 7.07686L10.634 10.217C11.0438 10.8794 11.6878 11.3448 12.4447 11.5209C12.6664 11.5712 12.8922 11.6005 13.1138 11.6005C13.2602 11.6005 13.4023 11.5879 13.5445 11.567L14.4687 13.0595C12.7709 14.5814 11.8551 16.9082 12.2816 19.2056C12.3569 19.6081 12.4698 19.9938 12.6162 20.3502C12.7834 20.7568 13.1723 21 13.5821 21C13.716 21 13.8498 20.9748 13.9794 20.9203C14.5147 20.7023 14.7698 20.0902 14.5481 19.5536C14.4561 19.3314 14.385 19.084 14.339 18.8241C13.9125 16.5183 15.4723 14.1663 17.8224 13.5752C18.4622 13.4159 19.1104 13.3991 19.7209 13.529V17.8012C19.7209 18.3839 19.2484 18.8577 18.6671 18.8577C18.0859 18.8577 17.6217 19.3272 17.6217 19.9058C17.6217 20.4843 18.09 20.9539 18.6671 20.9539C20.4025 20.9539 21.8118 19.541 21.8118 17.8012V13.0176C21.8118 12.9756 21.8034 12.9337 21.7992 12.8918C21.8619 12.4264 21.611 11.9611 21.1552 11.7808H21.1594ZM12.9298 9.47914C12.7165 9.42883 12.5325 9.29886 12.4196 9.1102L10.4751 5.97005C10.358 5.78139 10.3246 5.56339 10.3748 5.34538C10.425 5.13156 10.5546 4.94709 10.7428 4.8339C10.8766 4.75005 11.0271 4.70812 11.1735 4.70812C11.4495 4.70812 11.7171 4.84648 11.876 5.09802L13.8163 8.23817C14.0547 8.62388 13.9376 9.13536 13.5529 9.37433C13.3647 9.49171 13.1431 9.52525 12.9298 9.47495V9.47914Z" fill="#E384FF"/>
<path id="Vector_2" d="M13.532 2.09623H18.6713C19.2526 2.09623 19.7251 2.56997 19.7251 3.15273V4.335C19.7251 4.91356 20.1935 5.38311 20.7705 5.38311C21.3476 5.38311 21.816 4.91356 21.816 4.335V3.15273C21.816 1.41286 20.4067 0 18.6713 0H13.532C12.9549 0 12.4866 0.469555 12.4866 1.04811C12.4866 1.62667 12.9549 2.09623 13.532 2.09623Z" fill="#E384FF"/>
<path id="Vector_3" d="M3.14465 18.8535C2.56339 18.8535 2.09086 18.3797 2.09086 17.797V3.15272C2.09086 2.56997 2.56339 2.09623 3.14465 2.09623H7.226C7.80308 2.09623 8.27143 1.62667 8.27143 1.04811C8.27143 0.469555 7.80308 0 7.226 0H3.14465C1.40924 0 0 1.41286 0 3.15272V17.8012C0 19.541 1.40924 20.9539 3.14465 20.9539C3.72173 20.9539 4.19008 20.4843 4.19008 19.9058C4.19008 19.3272 3.72173 18.8577 3.14465 18.8577V18.8535Z" fill="#E384FF"/>
<path id="Vector_4" d="M10.0068 15.1222H8.96974V14.0825C8.96974 13.5039 8.50139 13.0343 7.92431 13.0343C7.34723 13.0343 6.87888 13.5039 6.87888 14.0825V15.1222H5.84182C5.26474 15.1222 4.79639 15.5917 4.79639 16.1703C4.79639 16.7489 5.26474 17.2184 5.84182 17.2184H6.87888V18.2581C6.87888 18.8367 7.34723 19.3062 7.92431 19.3062C8.50139 19.3062 8.96974 18.8367 8.96974 18.2581V17.2184H10.0068C10.5839 17.2184 11.0522 16.7489 11.0522 16.1703C11.0522 15.5917 10.5839 15.1222 10.0068 15.1222Z" fill="#E384FF"/>
<path id="Vector_5" d="M20.9546 7.22779H18.086C17.5089 7.22779 17.0405 7.69734 17.0405 8.2759C17.0405 8.85446 17.5089 9.32402 18.086 9.32402H20.9546C21.5317 9.32402 22 8.85446 22 8.2759C22 7.69734 21.5317 7.22779 20.9546 7.22779Z" fill="#E384FF"/>
</g>
<defs>
<clipPath id="clip0_542_994">
<rect width="22" height="21" fill="white"/>
</clipPath>
</defs>
</svg>
