<svg width="18" height="18" viewBox="0 0 18 18" fill="none" xmlns="http://www.w3.org/2000/svg">
<g id="_&#208;&#160;&#208;&#142;&#208;&#160;&#194;&#187;&#208;&#160;&#209;&#149;&#208;&#160;&#226;&#132;&#150;_2" clip-path="url(#clip0_542_17)">
<path id="Vector" d="M14.7161 0H3.28392C1.47366 0 0 1.47366 0 3.28392V14.7161C0 16.5263 1.47366 18 3.28392 18H14.7161C16.5263 18 18 16.5263 18 14.7161V3.28392C18 1.47366 16.5263 0 14.7161 0ZM15.9475 3.28392V10.9478C14.9542 11.0135 13.9731 11.0914 13.0043 11.1777V9.89692C14.519 9.45359 15.6274 8.05382 15.6274 6.39544C15.6274 4.38404 13.9895 2.74618 11.9781 2.74618C9.96671 2.74618 8.32885 4.38404 8.32885 6.39544C8.32885 8.04972 9.43717 9.44949 10.9519 9.89692V11.3747C7.83626 11.699 4.86021 12.1218 2.05245 12.6431V7.66796C4.81505 7.02759 6.93318 4.83558 7.48324 2.05245H14.7161C15.3934 2.05245 15.9475 2.60661 15.9475 3.28392ZM11.9781 7.99635C11.0956 7.99635 10.3813 7.27799 10.3813 6.39954C10.3813 5.5211 11.0997 4.80274 11.9781 4.80274C12.8566 4.80274 13.5749 5.5211 13.5749 6.39954C13.5749 7.27799 12.8566 7.99635 11.9781 7.99635ZM2.05245 3.28392C2.05245 2.60661 2.60661 2.05245 3.28392 2.05245H5.38153C4.91767 3.69852 3.66978 5.00798 2.05245 5.54572V3.28392ZM15.9475 14.7161C15.9475 15.3934 15.3934 15.9475 14.7161 15.9475H3.28392C3.19772 15.9475 3.11562 15.9393 3.03763 15.9229C3.00889 15.9188 2.98426 15.9065 2.95964 15.8983C2.91038 15.886 2.85701 15.8696 2.80775 15.8531C2.77902 15.8408 2.7585 15.8244 2.72976 15.8121C2.68461 15.7875 2.63945 15.7669 2.5984 15.7423C2.57377 15.7259 2.54915 15.7013 2.52452 15.6807C2.48757 15.652 2.45063 15.6233 2.41779 15.5904C2.39316 15.5658 2.37674 15.5412 2.35621 15.5124C2.32748 15.4796 2.29464 15.4468 2.27001 15.4057C2.24949 15.377 2.23717 15.3482 2.22075 15.3195C2.20023 15.2785 2.17149 15.2415 2.15507 15.2005C2.14276 15.1676 2.13455 15.1348 2.12224 15.1019C2.10582 15.0568 2.0894 15.0157 2.08119 14.9706C2.07298 14.9336 2.07298 14.8967 2.06887 14.8639C2.06477 14.8187 2.05656 14.7777 2.05656 14.7325C6.32155 13.9238 10.9929 13.3409 15.9517 13.0084V14.7202L15.9475 14.7161Z" fill="#E384FF"/>
</g>
<defs>
<clipPath id="clip0_542_17">
<rect width="18" height="18" fill="white"/>
</clipPath>
</defs>
</svg>
